<svg xmlns="http://www.w3.org/2000/svg" version="1.1" xmlns:xlink="http://www.w3.org/1999/xlink" xmlns:svgjs="http://svgjs.dev/svgjs" width="2000" height="1500" viewBox="0 0 2000 1500"><rect width="2000" height="1500" fill="#ffffff"></rect><g transform="matrix(0.75,0,0,0.75,249.090909090909,282.7536437246963)"><svg viewBox="0 0 396 247" data-background-color="#ffffff" preserveAspectRatio="xMidYMid meet" height="1247" width="2000" xmlns="http://www.w3.org/2000/svg" xmlns:xlink="http://www.w3.org/1999/xlink"><g id="tight-bounds" transform="matrix(1,0,0,1,0.2400000000000091,-0.09999999999999432)"><svg viewBox="0 0 395.52 247.2" height="247.2" width="395.52"><g><svg></svg></g><g><svg viewBox="0 0 395.52 247.2" height="247.2" width="395.52"><g transform="matrix(1,0,0,1,75.54432,52.40451476377268)"><svg viewBox="0 0 244.43135999999998 142.39097047245463" height="142.39097047245463" width="244.43135999999998"><g><svg viewBox="0 0 244.43135999999998 142.39097047245463" height="142.39097047245463" width="244.43135999999998"><g transform="matrix(1,0,0,1,0,100.41245090095317)"><svg viewBox="0 0 244.43135999999998 41.978519571501444" height="41.978519571501444" width="244.43135999999998"><g id="textblocktransform"><svg viewBox="0 0 244.43135999999998 41.978519571501444" height="41.978519571501444" width="244.43135999999998" id="textblock"><g><svg viewBox="0 0 244.43135999999998 41.978519571501444" height="41.978519571501444" width="244.43135999999998"><g transform="matrix(1,0,0,1,0,0)"><svg width="244.43135999999998" viewBox="0.95 -43.2 294.02000000000004 50.5" height="41.978519571501444" data-palette-color="#03424c"><path d="M11.8 0.4Q0.95 0.4 0.95-10.6L0.95-10.6 1-13.5 9.75-13.5 9.8-9.2Q9.8-7.9 10.3-7.23 10.8-6.55 11.95-6.55L11.95-6.55Q13.7-6.55 13.7-9.4L13.7-9.4Q13.7-11.5 12.88-12.7 12.05-13.9 10.25-15.25L10.25-15.25 5.6-18.85Q3.2-20.7 2.15-22.68 1.1-24.65 1.1-28.25L1.1-28.25Q1.1-31.05 2.58-33.02 4.05-35 6.5-36 8.95-37 11.95-37L11.95-37Q22.6-37 22.6-26.4L22.6-26.4 22.6-25.7 13.55-25.7 13.55-27.1Q13.55-28.4 13.13-29.33 12.7-30.25 11.7-30.25L11.7-30.25Q10.8-30.25 10.33-29.73 9.85-29.2 9.85-28.3L9.85-28.3Q9.85-26.3 11.4-25.2L11.4-25.2 16.8-21.25Q19.7-19.1 21.25-16.57 22.8-14.05 22.8-10.2L22.8-10.2Q22.8-5.1 19.9-2.35 17 0.4 11.8 0.4L11.8 0.4ZM25.5 0L25.5-36.6 34.05-36.6 34.05-32.35Q34.65-34.7 36.1-35.85 37.55-37 40.2-37L40.2-37Q42.35-37 43.92-36.02 45.5-35.05 46.15-33.35L46.15-33.35Q47.25-35.25 48.6-36.13 49.95-37 52.35-37L52.35-37Q56.65-37 58.32-34.38 60-31.75 60-26.75L60-26.75 59.9 0 51.1 0 51.1-26.9Q51.1-30.45 49.3-30.45L49.3-30.45Q48.05-30.45 47.5-29.23 46.95-28 46.95-26.3L46.95-26.3 46.95 0 38.2 0 38.2-26.9Q38.2-28.45 37.87-29.4 37.55-30.35 36.5-30.35L36.5-30.35Q35.15-30.35 34.6-29.03 34.05-27.7 34.05-25.85L34.05-25.85 34.05 0 25.5 0ZM70.05 0.4Q65.8 0.4 64.22-2.43 62.64-5.25 62.64-10.5L62.64-10.5Q62.64-14.8 63.77-17.1 64.89-19.4 66.89-20.48 68.89-21.55 73-22.85L73-22.85 75.39-23.65 75.39-23.75 75.39-27.4Q75.39-28.85 74.82-29.63 74.25-30.4 73.44-30.4L73.44-30.4Q72.75-30.4 72.22-29.75 71.69-29.1 71.69-28L71.69-28 71.69-25.8 63.19-25.8 63.19-27Q63.19-32.4 65.72-34.7 68.24-37 73.94-37L73.94-37Q78.5-37 81.34-34.63 84.19-32.25 84.19-27.9L84.19-27.9 84.19 0 75.5 0 75.5-4.35Q74.84-2.1 73.42-0.85 72 0.4 70.05 0.4L70.05 0.4ZM73.5-6.4Q74.5-6.4 74.92-7.23 75.34-8.05 75.34-9.25L75.34-9.25 75.34-19.45Q73.39-18.7 72.47-17.55 71.55-16.4 71.55-14.35L71.55-14.35 71.55-9.65Q71.55-6.4 73.5-6.4L73.5-6.4ZM87.54 0L87.54-36.6 96.29-36.6 96.29-32.55Q96.94-34.7 98.57-35.88 100.19-37.05 102.59-37.05L102.59-37.05 102.59-29.75Q100.74-29.75 98.52-29.23 96.29-28.7 96.29-28L96.29-28 96.29 0 87.54 0ZM112.29 0.4Q108.84 0.4 107.54-1.05 106.24-2.5 106.24-5.7L106.24-5.7 106.24-28.55 103.79-28.55 103.79-35.2 106.24-35.2 106.24-42.95 114.74-42.95 114.74-35.2 117.24-35.2 117.24-28.55 114.74-28.55 114.74-8Q114.74-7.05 114.89-6.6 115.04-6.15 115.69-6.15L115.69-6.15Q116.19-6.15 116.64-6.2 117.09-6.25 117.24-6.25L117.24-6.25 117.24-0.25Q116.49-0.05 115.07 0.18 113.64 0.4 112.29 0.4L112.29 0.4ZM141.74 0.4Q130.88 0.4 130.88-10.6L130.88-10.6 130.94-13.5 139.69-13.5 139.74-9.2Q139.74-7.9 140.24-7.23 140.74-6.55 141.88-6.55L141.88-6.55Q143.63-6.55 143.63-9.4L143.63-9.4Q143.63-11.5 142.81-12.7 141.99-13.9 140.19-15.25L140.19-15.25 135.53-18.85Q133.13-20.7 132.09-22.68 131.03-24.65 131.03-28.25L131.03-28.25Q131.03-31.05 132.51-33.02 133.99-35 136.44-36 138.88-37 141.88-37L141.88-37Q152.53-37 152.53-26.4L152.53-26.4 152.53-25.7 143.49-25.7 143.49-27.1Q143.49-28.4 143.06-29.33 142.63-30.25 141.63-30.25L141.63-30.25Q140.74-30.25 140.26-29.73 139.78-29.2 139.78-28.3L139.78-28.3Q139.78-26.3 141.34-25.2L141.34-25.2 146.74-21.25Q149.63-19.1 151.19-16.57 152.74-14.05 152.74-10.2L152.74-10.2Q152.74-5.1 149.84-2.35 146.94 0.4 141.74 0.4L141.74 0.4ZM155.43 0L155.43-43.2 164.43-43.2 164.43-33Q165.83-37 169.78-37L169.78-37Q173.48-37 175.38-34.65 177.28-32.3 177.28-28.2L177.28-28.2 177.28 0 168.53 0 168.53-27.65Q168.53-28.85 167.98-29.6 167.43-30.35 166.38-30.35L166.38-30.35Q165.48-30.35 164.96-29.58 164.43-28.8 164.43-27.7L164.43-27.7 164.43 0 155.43 0ZM191.33 0.4Q180.38 0.4 180.38-10.95L180.38-10.95 180.38-25.65Q180.38-30.85 183.31-33.93 186.23-37 191.33-37L191.33-37Q196.43-37 199.36-33.93 202.28-30.85 202.28-25.65L202.28-25.65 202.28-10.95Q202.28 0.4 191.33 0.4L191.33 0.4ZM191.33-6.35Q192.38-6.35 192.88-7.1 193.38-7.85 193.38-9.15L193.38-9.15 193.38-27.05Q193.38-30.25 191.33-30.25L191.33-30.25Q189.28-30.25 189.28-27.05L189.28-27.05 189.28-9.15Q189.28-7.85 189.78-7.1 190.28-6.35 191.33-6.35L191.33-6.35ZM205.53 7.3L205.53-36.6 214.43-36.6 214.43-34.65Q216.33-37 219.68-37L219.68-37Q223.93-37 225.6-34.15 227.28-31.3 227.28-26.25L227.28-26.25 227.28-12.7Q227.28-8.4 226.78-5.68 226.28-2.95 224.58-1.28 222.88 0.4 219.43 0.4L219.43 0.4Q216.13 0.4 214.43-1.45L214.43-1.45 214.43 7.3 205.53 7.3ZM216.53-6.4Q217.73-6.4 218.08-7.5 218.43-8.6 218.43-10.7L218.43-10.7 218.43-26.25Q218.43-28.15 218.08-29.15 217.73-30.15 216.48-30.15L216.48-30.15Q214.43-30.15 214.43-26.35L214.43-26.35 214.43-10.3Q214.43-8.45 214.85-7.43 215.28-6.4 216.53-6.4L216.53-6.4ZM230.53 7.3L230.53-36.6 239.43-36.6 239.43-34.65Q241.33-37 244.68-37L244.68-37Q248.93-37 250.6-34.15 252.28-31.3 252.28-26.25L252.28-26.25 252.28-12.7Q252.28-8.4 251.78-5.68 251.28-2.95 249.58-1.28 247.88 0.4 244.43 0.4L244.43 0.4Q241.13 0.4 239.43-1.45L239.43-1.45 239.43 7.3 230.53 7.3ZM241.53-6.4Q242.72-6.4 243.08-7.5 243.43-8.6 243.43-10.7L243.43-10.7 243.43-26.25Q243.43-28.15 243.08-29.15 242.72-30.15 241.47-30.15L241.47-30.15Q239.43-30.15 239.43-26.35L239.43-26.35 239.43-10.3Q239.43-8.45 239.85-7.43 240.28-6.4 241.53-6.4L241.53-6.4ZM265.77 0.4Q260.12 0.4 257.67-2.7 255.22-5.8 255.22-11.95L255.22-11.95 255.22-26.65Q255.22-31.7 258.12-34.35 261.02-37 266.22-37L266.22-37Q276.77-37 276.77-26.65L276.77-26.65 276.77-24Q276.77-20 276.67-17.5L276.67-17.5 263.97-17.5 263.97-10.4Q263.97-8.5 264.37-7.43 264.77-6.35 266.07-6.35L266.07-6.35Q267.07-6.35 267.5-6.95 267.92-7.55 268-8.33 268.07-9.1 268.07-10.6L268.07-10.6 268.07-14.15 276.77-14.15 276.77-12.05Q276.77-5.65 274.3-2.63 271.82 0.4 265.77 0.4L265.77 0.4ZM263.92-21.85L268.07-21.85 268.07-26.55Q268.07-30.5 266.12-30.5L266.12-30.5Q263.92-30.5 263.92-26.55L263.92-26.55 263.92-21.85ZM279.92 0L279.92-36.6 288.67-36.6 288.67-32.55Q289.32-34.7 290.94-35.88 292.57-37.05 294.97-37.05L294.97-37.05 294.97-29.75Q293.12-29.75 290.9-29.23 288.67-28.7 288.67-28L288.67-28 288.67 0 279.92 0Z" opacity="1" transform="matrix(1,0,0,1,0,0)" fill="#03424c" class="wordmark-text-0" data-fill-palette-color="primary" id="text-0"></path></svg></g></svg></g></svg></g></svg></g><g transform="matrix(1,0,0,1,76.96451504270429,0)"><svg viewBox="0 0 90.5023299145914 90.5023299145914" height="90.5023299145914" width="90.5023299145914"><g><svg></svg></g><g id="icon-0"><svg viewBox="0 0 90.5023299145914 90.5023299145914" height="90.5023299145914" width="90.5023299145914"><g><path transform="scale(0.90502,0.90502)" d="M30 100c-16.569 0-30-13.431-30-30v-40c0-16.569 13.431-30 30-30h40c16.569 0 30 13.431 30 30v40c0 16.569-13.431 30-30 30z" fill="#f56607" fill-rule="nonzero" stroke="none" stroke-width="1" stroke-linecap="butt" stroke-linejoin="miter" stroke-miterlimit="10" stroke-dasharray="" stroke-dashoffset="0" font-family="none" font-weight="none" font-size="none" text-anchor="none" style="mix-blend-mode: normal" data-fill-palette-color="accent"></path></g><g transform="matrix(1,0,0,1,18.10046598291828,22.717206363845317)"><svg viewBox="0 0 54.30139794875484 45.067917186900765" height="45.067917186900765" width="54.30139794875484"><g><svg xmlns="http://www.w3.org/2000/svg" xmlns:xlink="http://www.w3.org/1999/xlink" version="1.1" x="0" y="0" viewBox="5.001 12.653 89.99845506419707 74.69500000000001" enable-background="new 0 0 100 100" xml:space="preserve" height="45.067917186900765" width="54.30139794875484" class="icon-cg-0" data-fill-palette-color="quaternary" id="cg-0"><g fill="#ffffff" data-fill-palette-color="quaternary"><path fill="#ffffff" d="M92.754 60.094v-0.216h2.188l-1.903-25.83c0-3.275-2.842-5.93-6.348-5.93h-0.316c-3.506 0-6.346 2.654-6.346 5.93l-0.235 3.183L69.099 49.741c-1.098 1.284-0.947 3.215 0.337 4.312 0.577 0.492 1.282 0.734 1.986 0.734 0.863 0 1.72-0.364 2.325-1.072l5.286-6.185-0.909 12.348h2.188v0.216l-2.233 23.911c-0.156 1.683 1.079 3.173 2.761 3.33 0.097 0.01 0.192 0.013 0.288 0.013 1.561 0 2.894-1.188 3.041-2.773l2.161-23.147h0.406l2.161 23.147c0.147 1.585 1.479 2.773 3.041 2.773 0.096 0 0.191-0.003 0.287-0.013 1.683-0.157 2.918-1.647 2.761-3.33L92.754 60.094z" data-fill-palette-color="quaternary"></path><circle fill="#ffffff" cx="86.043" cy="19.363" r="6.7" data-fill-palette-color="quaternary"></circle><circle fill="#ffffff" cx="48.829" cy="83.474" r="3.9" data-fill-palette-color="quaternary"></circle><circle fill="#ffffff" cx="64.491" cy="83.474" r="3.9" data-fill-palette-color="quaternary"></circle><path fill="#ffffff" d="M75.211 59.021c-0.013-0.076-0.024-0.15-0.043-0.225-0.02-0.08-0.046-0.157-0.073-0.233-0.026-0.076-0.056-0.151-0.089-0.224-0.033-0.071-0.071-0.14-0.112-0.21-0.04-0.067-0.083-0.134-0.13-0.199-0.047-0.066-0.101-0.126-0.153-0.188-0.053-0.059-0.104-0.113-0.161-0.167-0.06-0.056-0.123-0.105-0.188-0.156-0.065-0.048-0.13-0.096-0.2-0.139-0.064-0.039-0.133-0.075-0.202-0.11-0.079-0.039-0.162-0.075-0.246-0.107-0.033-0.011-0.062-0.03-0.096-0.04-0.039-0.014-0.08-0.015-0.12-0.026-0.084-0.022-0.17-0.041-0.26-0.055-0.084-0.014-0.167-0.021-0.249-0.025-0.044-0.003-0.086-0.013-0.13-0.013H45.141l-0.924-5.424c-0.003-0.014-0.008-0.023-0.012-0.037-0.018-0.101-0.05-0.194-0.079-0.29-0.02-0.063-0.034-0.127-0.059-0.186-0.037-0.094-0.087-0.18-0.136-0.268-0.029-0.054-0.053-0.11-0.087-0.161-0.06-0.092-0.131-0.174-0.203-0.257-0.032-0.037-0.06-0.078-0.094-0.113-0.086-0.089-0.182-0.166-0.281-0.242-0.027-0.021-0.05-0.045-0.079-0.065-0.101-0.07-0.209-0.128-0.319-0.183-0.034-0.017-0.065-0.038-0.098-0.053-0.095-0.042-0.196-0.071-0.296-0.101-0.059-0.018-0.113-0.041-0.172-0.054-0.08-0.018-0.162-0.022-0.245-0.032-0.086-0.011-0.169-0.024-0.254-0.026-0.015 0-0.028-0.004-0.041-0.004h-5.647L25.707 37.23l-0.235-3.183c0-3.275-2.841-5.93-6.346-5.93h-0.317c-3.505 0-6.346 2.654-6.346 5.93l-0.235 3.193-0.76 10.301L8.896 68.178h3.849v0.218l-2.232 15.609c-0.157 1.683 1.078 3.173 2.761 3.33 0.096 0.01 0.193 0.013 0.287 0.013 1.561 0 2.893-1.188 3.041-2.771l2.163-14.851h0.405l2.161 14.851c0.149 1.583 1.482 2.771 3.041 2.771 0.096 0 0.191-0.003 0.289-0.013 1.681-0.157 2.917-1.647 2.761-3.33l-2.234-15.611v-0.216h3.848L26.465 47.53l5.286 6.185c0.606 0.708 1.464 1.072 2.326 1.072 0.545 0 1.09-0.15 1.577-0.444 0.146 0.026 0.295 0.045 0.449 0.045h3.558l3.796 22.272c0.001 0.015 0.008 0.026 0.01 0.041 0.013 0.068 0.036 0.133 0.054 0.201 0.024 0.086 0.047 0.172 0.079 0.253 0.024 0.062 0.054 0.12 0.083 0.178 0.041 0.081 0.081 0.161 0.128 0.237 0.034 0.053 0.071 0.104 0.108 0.153 0.055 0.073 0.112 0.143 0.173 0.209 0.042 0.046 0.086 0.09 0.133 0.134 0.064 0.06 0.134 0.114 0.206 0.168 0.05 0.039 0.102 0.076 0.157 0.11 0.076 0.049 0.156 0.089 0.237 0.128 0.057 0.027 0.11 0.057 0.168 0.081 0.096 0.037 0.196 0.065 0.295 0.091 0.05 0.013 0.096 0.031 0.146 0.041 0.154 0.029 0.312 0.047 0.474 0.047 0.001 0 0.003 0 0.005 0h21.44c0.003 0 0.006 0.001 0.01 0.001 0.155 0 0.306-0.019 0.457-0.047 0.045-0.01 0.089-0.022 0.135-0.032 0.101-0.025 0.197-0.055 0.295-0.093 0.05-0.019 0.099-0.038 0.147-0.06 0.094-0.044 0.183-0.094 0.271-0.147 0.037-0.022 0.076-0.044 0.112-0.068 0.121-0.084 0.234-0.177 0.34-0.28 0.008-0.008 0.013-0.016 0.02-0.022 0.096-0.098 0.182-0.203 0.261-0.316 0.027-0.039 0.051-0.081 0.075-0.121 0.052-0.085 0.101-0.171 0.143-0.263 0.024-0.054 0.047-0.107 0.067-0.164 0.015-0.039 0.036-0.076 0.049-0.118l5.395-16.849c0.014-0.042 0.015-0.083 0.026-0.123 0.021-0.083 0.04-0.167 0.054-0.253 0.013-0.088 0.021-0.174 0.025-0.261 0.002-0.043 0.014-0.081 0.014-0.124 0-0.033-0.01-0.066-0.012-0.102C75.234 59.199 75.225 59.11 75.211 59.021z" data-fill-palette-color="quaternary"></path><path fill="#ffffff" d="M13.042 17.389c-0.193 0.624-0.296 1.287-0.296 1.975 0 3.706 3.005 6.71 6.711 6.71s6.711-3.004 6.711-6.71c0-3.707-3.005-6.711-6.711-6.711-2.184 0-4.118 1.047-5.343 2.662-1.028-0.745-3.163-1.795-5.05 0.517 0 0-1.57 1.995-4.063 0.222 0 0 0.596 3.594 4.093 2.856C9.093 18.909 11.286 18.47 13.042 17.389z" data-fill-palette-color="quaternary"></path></g></svg></g></svg></g></svg></g></svg></g><g></g></svg></g></svg></g><g><path d="M106.335 42.494A122.216 122.216 0 0 1 289.185 42.494L285.399 42.494A118.43 118.43 0 0 0 110.121 42.494L106.335 42.494M106.335 204.706A122.216 122.216 0 0 0 289.185 204.706L285.399 204.706A118.43 118.43 0 0 1 110.121 204.706L106.335 204.706" fill="#03424c" stroke="transparent" data-fill-palette-color="tertiary"></path></g></svg></g><defs></defs></svg><rect width="395.52" height="247.2" fill="none" stroke="none" visibility="hidden"></rect></g></svg></g></svg>